<?xml version="1.0" standalone="no"?><!DOCTYPE svg PUBLIC "-//W3C//DTD SVG 1.1//EN" "http://www.w3.org/Graphics/SVG/1.1/DTD/svg11.dtd"><svg t="1715160003283" class="icon" viewBox="0 0 1024 1024" version="1.1" xmlns="http://www.w3.org/2000/svg" p-id="4456" xmlns:xlink="http://www.w3.org/1999/xlink" width="200" height="200"><path d="M512 0C229.229714 0 0 229.229714 0 512s229.229714 512 512 512 512-229.229714 512-512S794.770286 0 512 0zM364.836571 722.066286a14.848 14.848 0 0 1-3.796114 0.504685 14.628571 14.628571 0 0 1-14.123886-10.847085l-17.130057-63.9488a14.628571 14.628571 0 1 1 28.255086-7.570286l17.137371 63.941486a14.628571 14.628571 0 0 1-10.3424 17.92z m79.725715 0a14.628571 14.628571 0 0 1-17.912686-10.3424l-17.137371-63.9488a14.628571 14.628571 0 1 1 28.2624-7.570286L454.948571 704.146286a14.628571 14.628571 0 0 1-10.357028 17.92z m79.725714 0a14.804114 14.804114 0 0 1-3.796114 0.504685 14.628571 14.628571 0 0 1-14.116572-10.847085L489.325714 647.775086a14.628571 14.628571 0 1 1 28.255086-7.570286L534.674286 704.146286a14.628571 14.628571 0 0 1-10.320457 17.92z m187.143314-45.0048a14.628571 14.628571 0 1 1-14.379885 25.453714l-5.851429-3.335314 0.175543 6.765714a14.628571 14.628571 0 0 1-14.255543 14.994286h-0.380343a14.628571 14.628571 0 0 1-14.628571-14.255543l-0.226743-9.018514-7.9872 4.220342a14.628571 14.628571 0 0 1-13.685029-25.863314l5.229715-2.7648-5.12-2.925714a14.628571 14.628571 0 1 1 14.423771-25.4464l5.888 3.335314L660.48 641.462857a14.628571 14.628571 0 0 1 29.257143-0.731428l0.226743 9.018514 7.972571-4.220343a14.628571 14.628571 0 0 1 13.685029 25.863314l-5.229715 2.7648z m115.390172-163.518172a21.942857 21.942857 0 0 1-21.942857 21.942857h-585.874286a21.942857 21.942857 0 0 1-21.942857-21.942857v-190.171428a21.942857 21.942857 0 0 1 21.942857-21.942857h585.874286a21.942857 21.942857 0 0 1 21.942857 21.942857z" fill="#3D3D3D" p-id="4457"></path><path d="M804.944457 301.429029h-585.874286a21.942857 21.942857 0 0 0-21.942857 21.942857v190.171428a21.942857 21.942857 0 0 0 21.942857 21.942857h585.874286a21.942857 21.942857 0 0 0 21.942857-21.942857v-190.171428a21.942857 21.942857 0 0 0-21.942857-21.942857zM753.371429 484.1472H270.628571a14.628571 14.628571 0 0 1 0-29.257143h482.742858a14.628571 14.628571 0 0 1 0 29.257143z" fill="#93D8B7" p-id="4458"></path><path d="M753.371429 454.890057H270.628571a14.628571 14.628571 0 0 0 0 29.257143h482.742858a14.628571 14.628571 0 0 0 0-29.257143z" fill="#7BC6A4" p-id="4459"></path><path d="M358.0416 640.2048a14.628571 14.628571 0 1 0-28.255086 7.570286l17.130057 63.9488a14.628571 14.628571 0 0 0 14.123886 10.847085 14.848 14.848 0 0 0 3.796114-0.504685 14.628571 14.628571 0 0 0 10.3424-17.92zM437.803886 640.2048a14.628571 14.628571 0 1 0-28.2624 7.570286l17.137371 63.9488A14.628571 14.628571 0 1 0 454.948571 704.146286zM517.558857 640.2048a14.628571 14.628571 0 1 0-28.233143 7.570286l17.137372 63.9488a14.628571 14.628571 0 0 0 14.116571 10.847085 14.804114 14.804114 0 0 0 3.796114-0.504685A14.628571 14.628571 0 0 0 534.674286 704.146286zM717.6704 651.607771a14.628571 14.628571 0 0 0-19.748571-6.0928l-7.972572 4.220343L689.737143 640.731429a14.628571 14.628571 0 0 0-29.257143 0.731428l0.175543 6.765714-5.888-3.335314a14.628571 14.628571 0 1 0-14.423772 25.4464l5.12 2.925714-5.229714 2.7648A14.628571 14.628571 0 1 0 653.897143 701.886171l7.972571-4.220342 0.226743 9.018514a14.628571 14.628571 0 0 0 14.628572 14.255543h0.380342a14.628571 14.628571 0 0 0 14.255543-14.994286l-0.175543-6.765714 5.851429 3.335314a14.628571 14.628571 0 0 0 14.423771-25.453714l-5.12-2.925715 5.229715-2.7648a14.628571 14.628571 0 0 0 6.100114-19.7632z" fill="#FFFFFF" p-id="4460"></path></svg>