<?xml version="1.0" standalone="no"?><!DOCTYPE svg PUBLIC "-//W3C//DTD SVG 1.1//EN" "http://www.w3.org/Graphics/SVG/1.1/DTD/svg11.dtd"><svg t="1715160091292" class="icon" viewBox="0 0 1024 1024" version="1.1" xmlns="http://www.w3.org/2000/svg" p-id="4754" xmlns:xlink="http://www.w3.org/1999/xlink" width="200" height="200"><path d="M16 208m96 0l800 0q96 0 96 96l0 192q0 96-96 96l-800 0q-96 0-96-96l0-192q0-96 96-96Z" fill="#C9F0FF" p-id="4755"></path><path d="M912 608H112a112 112 0 0 1-112-112V304a112 112 0 0 1 112-112h800a112 112 0 0 1 112 112v192a112 112 0 0 1-112 112zM112 224a80 80 0 0 0-80 80v192a80 80 0 0 0 80 80h800a80 80 0 0 0 80-80V304a80 80 0 0 0-80-80H112z" fill="#0067FF" p-id="4756"></path><path d="M128 496m16 0l736 0q16 0 16 16l0 0q0 16-16 16l-736 0q-16 0-16-16l0 0q0-16 16-16Z" fill="#0067FF" p-id="4757"></path><path d="M128 416m16 0l736 0q16 0 16 16l0 0q0 16-16 16l-736 0q-16 0-16-16l0 0q0-16 16-16Z" fill="#0067FF" p-id="4758"></path><path d="M288 272m0 32l0 0q0 32-32 32l-128 0q-32 0-32-32l0 0q0-32 32-32l128 0q32 0 32 32Z" fill="#FFFFFF" p-id="4759"></path><path d="M336 848a16 16 0 0 1-5.76-30.88c89.6-34.4 87.2-84 85.12-128v-17.28a16 16 0 0 1 32 0v16c2.08 43.52 5.44 116.48-105.6 159.04A14.72 14.72 0 0 1 336 848zM688 848a14.72 14.72 0 0 1-5.76-1.12C571.2 804.32 574.56 731.36 576 688v-16a16 16 0 0 1 32 0v17.28c-2.08 43.84-4.48 93.44 85.12 128A16 16 0 0 1 688 848zM912 816a14.72 14.72 0 0 1-4.64 0c-112-34.56-108.8-94.88-106.72-131.04v-12.32a16 16 0 0 1 32 0v14.24c-2.08 33.44-4.32 71.36 84 98.4A16 16 0 0 1 912 816zM144 816a16.16 16.16 0 0 1-4.64-32c88.32-26.4 86.08-64 84.64-97.76V672a16 16 0 0 1 32 0v12.32c2.08 36.16 5.76 96-106.72 131.04A14.72 14.72 0 0 1 144 816z" fill="#0067FF" p-id="4760"></path></svg>