<?xml version="1.0" standalone="no"?><!DOCTYPE svg PUBLIC "-//W3C//DTD SVG 1.1//EN" "http://www.w3.org/Graphics/SVG/1.1/DTD/svg11.dtd"><svg t="1715160098168" class="icon" viewBox="0 0 1025 1024" version="1.1" xmlns="http://www.w3.org/2000/svg" p-id="4913" xmlns:xlink="http://www.w3.org/1999/xlink" width="200.1953125" height="200"><path d="M512.001463 512m-512 0a512 512 0 1 0 1024 0 512 512 0 1 0-1024 0Z" fill="#000000" p-id="4914"></path><path d="M778.886583 298.893897H245.116343c-29.925669 0-54.272 24.346331-54.272 54.272V561.473829c0 29.925669 24.346331 54.272 54.272 54.272h533.77024c29.925669 0 54.273463-24.346331 54.273463-54.272V353.165897c-0.001463-29.925669-24.347794-54.272-54.273463-54.272zM221.271771 353.124937c0-6.36928 2.479543-12.358217 6.982218-16.860891a23.69536 23.69536 0 0 1 16.860891-6.98368h533.77024c13.146697 0 23.844571 10.697874 23.844571 23.844571v208.306469c0 13.14816-10.697874 23.843109-23.844571 23.843108H245.116343c-13.146697 0-23.843109-10.694949-23.843109-23.843108V353.124937z" fill="#FFFFFF" p-id="4915"></path><path d="M705.104457 387.206583l0.013166 0.691931h0.017554a21.702949 21.702949 0 0 0 10.542812 17.358263 21.745371 21.745371 0 0 0 22.307108 0c6.88128-4.115017 10.92608-11.644343 10.558903-19.552548 0-11.985189-9.749943-21.735131-21.732206-21.735132s-21.732206 9.751406-21.732205 21.735132l0.02048 1.102994c-0.001463 0.134583 0.001463 0.267703 0.004388 0.39936zM733.311269 520.199314H290.69312c-8.399726 0-15.232731 6.834469-15.232731 15.242972 0.026331 8.371931 6.859337 15.182994 15.232731 15.182994h442.679589l0.06144-0.002926c8.060343-0.452023 14.372571-7.131429 14.372571-15.207863 0-8.074971-6.313691-14.757303-14.495451-15.215177z" fill="#FFFFFF" p-id="4916"></path><path d="M347.121371 648.105691a15.345371 15.345371 0 0 0-11.56096-1.519908 15.289783 15.289783 0 0 0-9.229165 7.113874l-25.924755 45.042834a15.147886 15.147886 0 0 0-0.648045 15.752046 15.194697 15.194697 0 0 0 13.306148 7.85408l0.365715-0.002926a15.1552 15.1552 0 0 0 13.238857-8.440685l25.99936-45.051612a15.054263 15.054263 0 0 0 1.52576-11.546331 15.017691 15.017691 0 0 0-7.072915-9.201372zM717.213989 698.733714l-26.041783-45.082331a15.302949 15.302949 0 0 0-13.187657-7.586377c-2.656549 0-5.28384 0.705097-7.602469 2.042148a15.33952 15.33952 0 0 0-7.089006 9.262812 15.118629 15.118629 0 0 0 1.543315 11.562423l26.041782 45.126217a15.291246 15.291246 0 0 0 13.183269 7.586377 15.228343 15.228343 0 0 0 7.599543-2.040686l0.626103-0.41984 0.014628-0.029257a15.082057 15.082057 0 0 0 6.467292-8.891246c1.024-3.869257 0.456411-8.074971-1.555017-11.53024zM508.750994 642.599497c-8.401189 0-15.234194 6.816914-15.234194 15.197623v52.077714a15.1552 15.1552 0 0 0 4.461714 10.773943 15.152274 15.152274 0 0 0 10.77248 4.457326c8.379246 0 15.19616-6.831543 15.19616-15.231269v-52.077714c0-8.379246-6.818377-15.197623-15.19616-15.197623z" fill="#FFFFFF" p-id="4917"></path></svg>